# xmcd
#
# Track frame offsets:
#	150
#	14710
#	28060
#	37227
#	48920
#	62252
#	74375
#	85080
#	96125
#	108510
#	119867
#	139160
#	151117
#	164222
#	176120
#	189450
#	202962
#	216682
#	230362
#	245457
#	258715
#
# Disc length: 3610 seconds
#
# Revision: 0
# Processed by: cddbd v1.5.1PL0 Copyright (c) Steve Scherf et al.
# Submitted via: dBpowerAMP V4.0
#
DISCID=3f0e1815
DTITLE=TAMMY WYNETTE - Anniversary: TWENTY YEARS OF HITS
DYEAR=1987
DGENRE=Country and Wester
TTITLE0=Alive and Well Tammy Wynette
TTITLE1=Apartment NO 9 Tammy Wynette
TTITLE2=Your Good Girl's Gunna Go Bad Tammy Wynette
TTITLE3=I Don't Wanna Play House Tammy Wynette
TTITLE4=D-V-O-R-C-E Tammy Wynette
TTITLE5=Stand By Your Man Tammy Wynette
TTITLE6=Singing My Song Tammy Wynette
TTITLE7=Run Women Run Tammy Wynette
TTITLE8=We Sure Can Love Each Other Tammy Wynette
TTITLE9=Good Loving' (Makes It Right) Tammy Wynette
TTITLE10=BedTime Story Tammy Wynette
TTITLE11='Til I Get It Right Tammy Wynette
TTITLE12=Kids Say The Darnest Things Tammy Wynette
TTITLE13=Another Lonely Song Tammy Wynette
TTITLE14=Were Gunna Hold On Tammy Wynette
TTITLE15=Women To Women Tammy Wynette
TTITLE16="Til I Can Make It On My Own Tammy Wynette
TTITLE17=Golden Ring Tammy Wynette
TTITLE18=You And Me Tammy Wynette
TTITLE19=One Of A Kind Tammy Wynette
TTITLE20=Two Story House Tammy Wynette
EXTD=My Music player will not play my music and when i try to rip music from my CD's to my compter i get no results
EXTT0=
EXTT1=
EXTT2=
EXTT3=
EXTT4=
EXTT5=
EXTT6=
EXTT7=
EXTT8=
EXTT9=
EXTT10=
EXTT11=
EXTT12=
EXTT13=
EXTT14=
EXTT15=
EXTT16=
EXTT17=
EXTT18=
EXTT19=
EXTT20=
PLAYORDER=
